{
    "accessors" : [
        {
            "bufferView" : 0,
            "componentType" : 5123,
            "count" : 717,
            "max" : [
                156
            ],
            "min" : [
                0
            ],
            "type" : "SCALAR"
        },
        {
            "bufferView" : 1,
            "componentType" : 5126,
            "count" : 157,
            "max" : [
                0.0,
                3.246422529220581,
                1.0
            ],
            "min" : [
                -1.0751173496246338,
                -1.723917841911316,
                -1.0
            ],
            "type" : "VEC3"
        },
        {
            "bufferView" : 2,
            "componentType" : 5126,
            "count" : 157,
            "max" : [
                0.669484555721283,
                0.9857499003410339,
                0.9902035593986511
            ],
            "min" : [
                -0.9978331923484802,
                -0.9860180020332336,
                -0.9978498220443726
            ],
            "type" : "VEC3"
        },
        {
            "bufferView" : 3,
            "componentType" : 5126,
            "count" : 157,
            "max" : [
                1.0,
                1.0,
                1.0,
                1.0
            ],
            "min" : [
                0.0,
                0.0,
                0.0,
                1.0
            ],
            "type" : "VEC4"
        },
        {
            "bufferView" : 4,
            "componentType" : 5123,
            "count" : 157,
            "max" : [
                0,
                0,
                0,
                0
            ],
            "min" : [
                0,
                0,
                0,
                0
            ],
            "type" : "VEC4"
        },
        {
            "bufferView" : 5,
            "componentType" : 5126,
            "count" : 157,
            "max" : [
                1.0,
                1.0,
                1.0,
                1.0
            ],
            "min" : [
                0.0,
                0.0,
                0.0,
                0.0
            ],
            "type" : "VEC4"
        },
        {
            "bufferView" : 6,
            "componentType" : 5123,
            "count" : 157,
            "max" : [
                0,
                0,
                0,
                0
            ],
            "min" : [
                0,
                0,
                0,
                0
            ],
            "type" : "VEC4"
        },
        {
            "bufferView" : 7,
            "componentType" : 5126,
            "count" : 157,
            "max" : [
                1.0,
                1.0,
                0.0,
                0.0
            ],
            "min" : [
                0.0,
                0.0,
                0.0,
                0.0
            ],
            "type" : "VEC4"
        },
        {
            "bufferView" : 8,
            "componentType" : 5126,
            "count" : 1,
            "max" : [
                0.20547841489315033,
                0.0,
                0.0,
                0.0,
                0.0,
                0.20547841489315033,
                0.0,
                0.0,
                0.0,
                0.0,
                0.20547841489315033,
                0.0,
                0.0,
                0.3411058187484741,
                0.0026411244180053473,
                1.0
            ],
            "min" : [
                0.20547841489315033,
                0.0,
                0.0,
                0.0,
                0.0,
                0.20547841489315033,
                0.0,
                0.0,
                0.0,
                0.0,
                0.20547841489315033,
                0.0,
                0.0,
                0.3411058187484741,
                0.0026411244180053473,
                1.0
            ],
            "type" : "MAT4"
        },
        {
            "bufferView" : 9,
            "componentType" : 5126,
            "count" : 1,
            "max" : [
                0.20547841489315033,
                0.0,
                0.0,
                0.0,
                0.0,
                0.20547841489315033,
                0.0,
                0.0,
                0.0,
                0.0,
                0.20547841489315033,
                0.0,
                0.0,
                0.3411058187484741,
                0.0026411244180053473,
                1.0
            ],
            "min" : [
                0.20547841489315033,
                0.0,
                0.0,
                0.0,
                0.0,
                0.20547841489315033,
                0.0,
                0.0,
                0.0,
                0.0,
                0.20547841489315033,
                0.0,
                0.0,
                0.3411058187484741,
                0.0026411244180053473,
                1.0
            ],
            "type" : "MAT4"
        }
    ],
    "animations" : [],
    "asset" : {
        "generator" : "Khronos Blender glTF 2.0 exporter",
        "version" : "2.0"
    },
    "bufferViews" : [
        {
            "buffer" : 0,
            "byteLength" : 1434,
            "byteOffset" : 0,
            "target" : 34963
        },
        {
            "buffer" : 0,
            "byteLength" : 1884,
            "byteOffset" : 1436,
            "target" : 34962
        },
        {
            "buffer" : 0,
            "byteLength" : 1884,
            "byteOffset" : 3320,
            "target" : 34962
        },
        {
            "buffer" : 0,
            "byteLength" : 2512,
            "byteOffset" : 5204,
            "target" : 34962
        },
        {
            "buffer" : 0,
            "byteLength" : 1256,
            "byteOffset" : 7716,
            "target" : 34962
        },
        {
            "buffer" : 0,
            "byteLength" : 2512,
            "byteOffset" : 8972,
            "target" : 34962
        },
        {
            "buffer" : 0,
            "byteLength" : 1256,
            "byteOffset" : 11484,
            "target" : 34962
        },
        {
            "buffer" : 0,
            "byteLength" : 2512,
            "byteOffset" : 12740,
            "target" : 34962
        },
        {
            "buffer" : 0,
            "byteLength" : 64,
            "byteOffset" : 15252
        },
        {
            "buffer" : 0,
            "byteLength" : 64,
            "byteOffset" : 15316
        }
    ],
    "buffers" : [
        {
            "byteLength" : 15380,
            "uri" : "fish.bin"
        }
    ],
    "materials" : [
        {
            "name" : "Material",
            "pbrMetallicRoughness" : {
                "metallicFactor" : 0.0
            }
        }
    ],
    "meshes" : [
        {
            "name" : "Cylinder",
            "primitives" : [
                {
                    "attributes" : {
                        "COLOR_0" : 3,
                        "JOINTS_0" : 4,
                        "JOINTS_1" : 6,
                        "NORMAL" : 2,
                        "POSITION" : 1,
                        "WEIGHTS_0" : 5,
                        "WEIGHTS_1" : 7
                    },
                    "indices" : 0,
                    "material" : 0
                }
            ]
        }
    ],
    "nodes" : [
        {
            "children" : [
                2,
                4
            ],
            "name" : "Armature",
            "rotation" : [
                0.7071068286895752,
                0.0,
                -0.0,
                0.7071068286895752
            ],
            "scale" : [
                4.8666911125183105,
                4.8666911125183105,
                4.8666911125183105
            ],
            "translation" : [
                0.0,
                0.01285361498594284,
                -1.200522780418396
            ]
        },
        {
            "name" : "Camera",
            "rotation" : [
                0.483536034822464,
                0.33687159419059753,
                -0.20870360732078552,
                0.7804827094078064
            ],
            "translation" : [
                7.481131553649902,
                5.34366512298584,
                6.5076398849487305
            ]
        },
        {
            "mesh" : 0,
            "name" : "fish",
            "scale" : [
                0.20547841489315033,
                0.20547841489315033,
                0.20547841489315033
            ],
            "skin" : 0,
            "translation" : [
                0.0,
                0.3411058187484741,
                0.0026411244180053473
            ]
        },
        {
            "name" : "Lamp",
            "rotation" : [
                0.16907575726509094,
                0.7558802962303162,
                -0.27217137813568115,
                0.570947527885437
            ],
            "scale" : [
                1.0,
                1.0,
                0.9999999403953552
            ],
            "translation" : [
                4.076245307922363,
                5.903861999511719,
                -1.0054539442062378
            ]
        },
        {
            "name" : "Armature_Bone"
        }
    ],
    "scene" : 0,
    "scenes" : [
        {
            "name" : "Scene",
            "nodes" : [
                0,
                3,
                1
            ]
        }
    ],
    "skins" : [
        {
            "inverseBindMatrices" : 8,
            "joints" : [
                4
            ],
            "skeleton" : 0
        },
        {
            "inverseBindMatrices" : 9,
            "joints" : [
                4
            ],
            "skeleton" : 0
        }
    ]
}
